<?xml version="1.0" encoding="UTF-8"?>
<svg xmlns="http://www.w3.org/2000/svg" xmlns:xlink="http://www.w3.org/1999/xlink" width="192px" height="192px" viewBox="0 0 192 192" version="1.1">
<g id="surface1">
<path style=" stroke:none;fill-rule:nonzero;fill:rgb(0%,0%,0%);fill-opacity:1;" d="M 144.175781 3.726562 L 120.164062 9.761719 L 67.886719 62.039062 C 50.523438 79.402344 68.324219 95.035156 49.792969 113.566406 L 19.195312 144.164062 C 18.730469 144.140625 18.265625 144.144531 17.800781 144.175781 C 15.574219 144.332031 12.710938 145.257812 10.324219 147.644531 C 7.9375 150.03125 7.164062 152.742188 7.007812 154.96875 C 6.851562 157.195312 7.332031 159.304688 8.097656 161.519531 C 9.625 165.953125 12.6875 170.679688 16.992188 174.984375 C 21.296875 179.289062 26.011719 182.351562 30.445312 183.878906 C 32.660156 184.644531 34.78125 185.125 37.007812 184.96875 C 39.234375 184.8125 41.851562 183.945312 44.238281 181.558594 C 46.625 179.171875 47.632812 176.402344 47.789062 174.175781 C 47.890625 172.746094 47.734375 171.351562 47.402344 169.957031 L 76.792969 140.566406 C 95.324219 122.035156 110.957031 139.835938 128.320312 122.472656 L 188.671875 62.121094 L 148.546875 66.679688 L 151.464844 28.582031 L 122.800781 39 C 124.078125 25.980469 131.527344 14.972656 144.175781 3.726562 Z M 144.632812 85.816406 L 149.671875 90.855469 L 125.167969 115.347656 C 115.675781 124.84375 105.816406 124.933594 97.464844 124.96875 C 89.113281 125.007812 82.15625 124.941406 73.652344 133.441406 L 44.542969 162.878906 C 43.421875 160.890625 42.027344 158.894531 40.382812 156.949219 L 68.613281 128.402344 C 78.640625 118.375 89.027344 117.90625 97.464844 117.867188 C 105.902344 117.832031 112.261719 118.1875 120.128906 110.320312 Z M 15.339844 151.628906 C 16.40625 151.617188 17.980469 151.792969 19.570312 152.34375 C 23.207031 153.597656 27.605469 156.417969 31.582031 160.394531 C 35.558594 164.371094 38.378906 168.769531 39.632812 172.40625 C 40.257812 174.226562 40.304688 175.914062 40.230469 176.953125 C 40.125 177.484375 40.140625 177.488281 39.632812 177.5625 C 38.59375 177.636719 37.046875 177.441406 35.226562 176.8125 C 31.589844 175.558594 27.203125 172.726562 23.226562 168.75 C 19.25 164.769531 16.417969 160.375 15.164062 156.738281 C 14.535156 154.917969 14.246094 153.289062 14.320312 152.25 C 14.335938 151.667969 14.328125 151.667969 14.917969 151.640625 C 15.046875 151.632812 15.1875 151.632812 15.339844 151.628906 Z M 15.339844 151.628906 "/>
</g>
</svg>
